<svg width="62" height="62" viewBox="0 0 62 62" fill="none" xmlns="http://www.w3.org/2000/svg">
<rect x="21.3571" y="14.3571" width="19.2857" height="19.2857" fill="#FAFAFA" fill-opacity="0.12" stroke="#B2B2B2" stroke-width="1.28571"/>
<g clip-path="url(#clip0_1404_34453)">
<path d="M22.5949 44.4322C22.1054 44.4553 21.7712 44.5334 21.479 44.6482C21.1766 44.7661 20.9203 44.9242 20.6653 45.1802C20.4102 45.4361 20.2532 45.6926 20.1362 45.9955C20.0229 46.2883 19.9462 46.6228 19.9246 47.1125C19.9029 47.6022 19.8982 47.7596 19.9006 49.0088C19.9029 50.258 19.9085 50.4146 19.9322 50.9053C19.9556 51.3946 20.0334 51.7288 20.1482 52.0211C20.2663 52.3235 20.4242 52.5797 20.6803 52.8348C20.9363 53.0899 21.1926 53.2466 21.4962 53.3638C21.7888 53.4769 22.1234 53.554 22.613 53.5754C23.1026 53.5968 23.2602 53.6018 24.509 53.5994C25.7578 53.597 25.9151 53.5915 26.4057 53.5682C26.8963 53.545 27.2287 53.4666 27.5211 53.3523C27.8235 53.234 28.0799 53.0763 28.3348 52.8202C28.5898 52.564 28.7467 52.3074 28.8637 52.0043C28.977 51.7118 29.054 51.3772 29.0753 50.8879C29.0967 50.3969 29.1017 50.2401 29.0994 48.9911C29.097 47.7422 29.0914 47.5856 29.0681 47.095C29.0448 46.6045 28.9669 46.2714 28.8522 45.9789C28.7339 45.6765 28.5762 45.4205 28.3202 45.1652C28.0643 44.9099 27.8074 44.753 27.5044 44.6363C27.2117 44.5231 26.8773 44.4459 26.3877 44.4247C25.898 44.4036 25.7404 44.3982 24.4912 44.4005C23.2419 44.4029 23.0855 44.4083 22.5949 44.4322ZM22.6486 52.7479C22.2001 52.7284 21.9566 52.6538 21.7943 52.5915C21.5794 52.5087 21.4263 52.4086 21.2645 52.2484C21.1028 52.0882 21.0034 51.9346 20.9195 51.7201C20.8565 51.5578 20.7806 51.3146 20.7596 50.8661C20.7368 50.3814 20.732 50.2358 20.7294 49.0077C20.7267 47.7796 20.7314 47.6342 20.7527 47.1493C20.7718 46.7012 20.8468 46.4574 20.9091 46.2952C20.9919 46.08 21.0916 45.9272 21.2521 45.7655C21.4127 45.6039 21.5658 45.5044 21.7805 45.4205C21.9426 45.3572 22.1858 45.2819 22.6341 45.2606C23.1193 45.2376 23.2646 45.233 24.4925 45.2303C25.7205 45.2276 25.8662 45.2322 26.3515 45.2536C26.7996 45.2731 27.0435 45.3473 27.2055 45.41C27.4205 45.4928 27.5735 45.5922 27.7352 45.753C27.8968 45.9139 27.9965 46.0665 28.0804 46.2816C28.1438 46.4432 28.219 46.6864 28.2402 47.135C28.2633 47.6201 28.2685 47.7655 28.2707 48.9934C28.2729 50.2212 28.2686 50.367 28.2473 50.8518C28.2277 51.3003 28.1534 51.5439 28.0909 51.7063C28.0081 51.9212 27.9083 52.0743 27.7477 52.2359C27.5871 52.3974 27.4341 52.497 27.2193 52.5809C27.0574 52.6441 26.8139 52.7195 26.3659 52.7409C25.8808 52.7637 25.7355 52.7685 24.5071 52.7711C23.2787 52.7738 23.1338 52.7688 22.6487 52.7479M26.3986 46.5415C26.3988 46.6507 26.4313 46.7573 26.4922 46.848C26.553 46.9387 26.6393 47.0093 26.7403 47.0509C26.8412 47.0925 26.9522 47.1032 27.0593 47.0817C27.1663 47.0603 27.2646 47.0075 27.3416 46.9302C27.4187 46.8528 27.4711 46.7544 27.4922 46.6472C27.5133 46.5401 27.5022 46.4291 27.4602 46.3283C27.4182 46.2275 27.3473 46.1415 27.2564 46.081C27.1655 46.0205 27.0587 45.9883 26.9495 45.9886C26.8031 45.9888 26.6629 46.0473 26.5596 46.1509C26.4563 46.2546 26.3984 46.3951 26.3986 46.5415ZM22.1381 49.0046C22.1407 50.3091 23.2001 51.3643 24.5044 51.3618C25.8087 51.3593 26.8646 50.2999 26.8621 48.9954C26.8596 47.6908 25.7999 46.6354 24.4954 46.638C23.1909 46.6406 22.1356 47.7002 22.1381 49.0046ZM22.9666 49.0029C22.966 48.6997 23.0554 48.403 23.2234 48.1505C23.3914 47.898 23.6304 47.701 23.9104 47.5844C24.1904 47.4678 24.4986 47.4368 24.7962 47.4954C25.0937 47.554 25.3672 47.6995 25.5821 47.9135C25.797 48.1275 25.9435 48.4004 26.0033 48.6978C26.0631 48.9951 26.0333 49.3035 25.9178 49.5839C25.8023 49.8643 25.6062 50.1042 25.3544 50.2731C25.1026 50.4421 24.8063 50.5326 24.503 50.5332C24.3017 50.5337 24.1022 50.4944 23.916 50.4177C23.7298 50.3411 23.5605 50.2284 23.4178 50.0863C23.2752 49.9442 23.1619 49.7754 23.0845 49.5895C23.0071 49.4036 22.967 49.2043 22.9666 49.0029Z" fill="#D9D9D9"/>
</g>
<path d="M34.968 45.86C34.728 46.13 34.448 46.37 34.108 46.59C33.768 46.79 33.428 46.93 33.108 47.02V47.84C33.778 47.64 34.338 47.32 34.788 46.86V53H35.608V45.86H34.968ZM38.0016 48.13C37.8216 48.13 37.6816 48.19 37.5716 48.31C37.4516 48.43 37.3916 48.57 37.3916 48.74C37.3916 48.91 37.4516 49.06 37.5716 49.18C37.6816 49.29 37.8216 49.35 38.0016 49.35C38.1616 49.35 38.3116 49.29 38.4316 49.18C38.5516 49.06 38.6116 48.91 38.6116 48.74C38.6116 48.57 38.5516 48.43 38.4316 48.31C38.3116 48.19 38.1616 48.13 38.0016 48.13ZM38.0016 51.79C37.8216 51.79 37.6816 51.85 37.5716 51.97C37.4516 52.09 37.3916 52.23 37.3916 52.4C37.3916 52.57 37.4516 52.72 37.5716 52.84C37.6816 52.95 37.8216 53.01 38.0016 53.01C38.1616 53.01 38.3116 52.95 38.4316 52.84C38.5516 52.72 38.6116 52.57 38.6116 52.4C38.6116 52.23 38.5516 52.09 38.4316 51.97C38.3116 51.85 38.1616 51.79 38.0016 51.79ZM41.6184 45.86C41.3784 46.13 41.0984 46.37 40.7584 46.59C40.4184 46.79 40.0784 46.93 39.7584 47.02V47.84C40.4284 47.64 40.9884 47.32 41.4384 46.86V53H42.2584V45.86H41.6184Z" fill="#D4D4D4"/>
<defs>
<clipPath id="clip0_1404_34453">
<rect width="9.2" height="9.19997" fill="white" transform="translate(19.9 44.3999)"/>
</clipPath>
</defs>
</svg>
