<svg width="62" height="62" viewBox="0 0 62 62" fill="none" xmlns="http://www.w3.org/2000/svg">
<rect x="38.0714" y="14.3571" width="19.2857" height="14.1429" transform="rotate(90 38.0714 14.3571)" fill="#FAFAFA" fill-opacity="0.12" stroke="#B2B2B2" stroke-width="1.28571"/>
<path d="M26.7555 45.72C26.0755 45.72 25.5255 45.91 25.1055 46.3C24.6655 46.69 24.4055 47.23 24.3455 47.92H25.1555C25.2055 47.44 25.3655 47.07 25.6455 46.81C25.9155 46.55 26.2855 46.43 26.7655 46.43C27.2255 46.43 27.5955 46.54 27.8555 46.78C28.0955 47 28.2255 47.31 28.2255 47.71C28.2255 48.11 28.0955 48.42 27.8455 48.64C27.5955 48.85 27.2355 48.96 26.7555 48.96H26.2055V49.6H26.7855C27.2855 49.6 27.6655 49.71 27.9455 49.95C28.2255 50.19 28.3655 50.52 28.3655 50.95C28.3655 51.37 28.2155 51.72 27.9355 52C27.6255 52.29 27.2155 52.44 26.7055 52.44C26.2555 52.44 25.8855 52.31 25.5855 52.07C25.2355 51.78 25.0455 51.35 25.0255 50.79H24.1955C24.2555 51.59 24.5355 52.2 25.0455 52.62C25.4755 52.96 26.0255 53.14 26.7055 53.14C27.4455 53.14 28.0455 52.93 28.5055 52.51C28.9555 52.1 29.1855 51.57 29.1855 50.92C29.1855 50.5 29.0655 50.15 28.8255 49.87C28.6055 49.59 28.2855 49.39 27.8655 49.26C28.6455 49 29.0355 48.46 29.0355 47.66C29.0355 47.06 28.8255 46.59 28.4155 46.24C27.9955 45.89 27.4355 45.72 26.7555 45.72ZM31.0016 48.13C30.8216 48.13 30.6816 48.19 30.5716 48.31C30.4516 48.43 30.3916 48.57 30.3916 48.74C30.3916 48.91 30.4516 49.06 30.5716 49.18C30.6816 49.29 30.8216 49.35 31.0016 49.35C31.1616 49.35 31.3116 49.29 31.4316 49.18C31.5516 49.06 31.6116 48.91 31.6116 48.74C31.6116 48.57 31.5516 48.43 31.4316 48.31C31.3116 48.19 31.1616 48.13 31.0016 48.13ZM31.0016 51.79C30.8216 51.79 30.6816 51.85 30.5716 51.97C30.4516 52.09 30.3916 52.23 30.3916 52.4C30.3916 52.57 30.4516 52.72 30.5716 52.84C30.6816 52.95 30.8216 53.01 31.0016 53.01C31.1616 53.01 31.3116 52.95 31.4316 52.84C31.5516 52.72 31.6116 52.57 31.6116 52.4C31.6116 52.23 31.5516 52.09 31.4316 51.97C31.3116 51.85 31.1616 51.79 31.0016 51.79ZM36.1584 45.86L32.5584 50.6V51.38H36.1484V53H36.9284V51.38H38.0884V50.71H36.9284V45.86H36.1584ZM36.1184 46.93H36.1484V50.71H33.2484L36.1184 46.93Z" fill="#D4D4D4"/>
</svg>
