<svg width="62" height="62" viewBox="0 0 62 62" fill="none" xmlns="http://www.w3.org/2000/svg">
<rect x="21.3571" y="16.9286" width="19.2857" height="14.1429" fill="#FAFAFA" fill-opacity="0.12" stroke="#B2B2B2" stroke-width="1.28571"/>
<g clip-path="url(#clip0_1404_34456)">
<path d="M27.1001 46.7305C26.9894 46.3246 26.6646 46.0056 26.2513 45.897C25.5022 45.6998 22.5 45.6998 22.5 45.6998C22.5 45.6998 19.4978 45.6998 18.7495 45.897C18.3362 46.0056 18.0114 46.3246 17.9007 46.7305C17.7 47.4655 17.7 48.9998 17.7 48.9998C17.7 48.9998 17.7 50.5342 17.9007 51.2692C18.0114 51.6751 18.3362 51.994 18.7495 52.1027C19.4978 52.2998 22.5 52.2998 22.5 52.2998C22.5 52.2998 25.5022 52.2998 26.2505 52.1027C26.6638 51.994 26.9886 51.6751 27.0993 51.2692C27.3 50.5342 27.3 48.9998 27.3 48.9998C27.3 48.9998 27.3 47.4655 27.0993 46.7305H27.1001Z" fill="#D9D9D9"/>
<path d="M21.5398 50.4139L24.0347 48.9999L21.5398 47.5858V50.4139Z" fill="#3A3A3A"/>
</g>
<path d="M34.5255 45.86L30.9255 50.6V51.38H34.5155V53H35.2955V51.38H36.4555V50.71H35.2955V45.86H34.5255ZM34.4855 46.93H34.5155V50.71H31.6155L34.4855 46.93ZM38.0016 48.13C37.8216 48.13 37.6816 48.19 37.5716 48.31C37.4516 48.43 37.3916 48.57 37.3916 48.74C37.3916 48.91 37.4516 49.06 37.5716 49.18C37.6816 49.29 37.8216 49.35 38.0016 49.35C38.1616 49.35 38.3116 49.29 38.4316 49.18C38.5516 49.06 38.6116 48.91 38.6116 48.74C38.6116 48.57 38.5516 48.43 38.4316 48.31C38.3116 48.19 38.1616 48.13 38.0016 48.13ZM38.0016 51.79C37.8216 51.79 37.6816 51.85 37.5716 51.97C37.4516 52.09 37.3916 52.23 37.3916 52.4C37.3916 52.57 37.4516 52.72 37.5716 52.84C37.6816 52.95 37.8216 53.01 38.0016 53.01C38.1616 53.01 38.3116 52.95 38.4316 52.84C38.5516 52.72 38.6116 52.57 38.6116 52.4C38.6116 52.23 38.5516 52.09 38.4316 51.97C38.3116 51.85 38.1616 51.79 38.0016 51.79ZM42.3884 45.72C41.7084 45.72 41.1584 45.91 40.7384 46.3C40.2984 46.69 40.0384 47.23 39.9784 47.92H40.7884C40.8384 47.44 40.9984 47.07 41.2784 46.81C41.5484 46.55 41.9184 46.43 42.3984 46.43C42.8584 46.43 43.2284 46.54 43.4884 46.78C43.7284 47 43.8584 47.31 43.8584 47.71C43.8584 48.11 43.7284 48.42 43.4784 48.64C43.2284 48.85 42.8684 48.96 42.3884 48.96H41.8384V49.6H42.4184C42.9184 49.6 43.2984 49.71 43.5784 49.95C43.8584 50.19 43.9984 50.52 43.9984 50.95C43.9984 51.37 43.8484 51.72 43.5684 52C43.2584 52.29 42.8484 52.44 42.3384 52.44C41.8884 52.44 41.5184 52.31 41.2184 52.07C40.8684 51.78 40.6784 51.35 40.6584 50.79H39.8284C39.8884 51.59 40.1684 52.2 40.6784 52.62C41.1084 52.96 41.6584 53.14 42.3384 53.14C43.0784 53.14 43.6784 52.93 44.1384 52.51C44.5884 52.1 44.8184 51.57 44.8184 50.92C44.8184 50.5 44.6984 50.15 44.4584 49.87C44.2384 49.59 43.9184 49.39 43.4984 49.26C44.2784 49 44.6684 48.46 44.6684 47.66C44.6684 47.06 44.4584 46.59 44.0484 46.24C43.6284 45.89 43.0684 45.72 42.3884 45.72Z" fill="#D4D4D4"/>
<defs>
<clipPath id="clip0_1404_34456">
<rect width="9.6" height="6.6" fill="white" transform="translate(17.7 45.6998)"/>
</clipPath>
</defs>
</svg>
