<svg width="62" height="62" viewBox="0 0 62 62" fill="none" xmlns="http://www.w3.org/2000/svg">
<rect x="36.1428" y="14.3571" width="19.2857" height="10.2857" transform="rotate(90 36.1428 14.3571)" fill="#FAFAFA" fill-opacity="0.12" stroke="#B2B2B2" stroke-width="1.28571"/>
<g opacity="0.8">
<path d="M22.8001 45.91C22.4583 45.5198 22.2699 45.0187 22.2701 44.5H20.7251V50.7C20.7132 51.0355 20.5715 51.3533 20.33 51.5865C20.0884 51.8196 19.7658 51.95 19.4301 51.95C18.7201 51.95 18.1301 51.37 18.1301 50.65C18.1301 49.79 18.9601 49.145 19.8151 49.41V47.83C18.0901 47.6 16.5801 48.94 16.5801 50.65C16.5801 52.315 17.9601 53.5 19.4251 53.5C20.9951 53.5 22.2701 52.225 22.2701 50.65V47.505C22.8966 47.9549 23.6488 48.1963 24.4201 48.195V46.65C24.4201 46.65 23.4801 46.695 22.8001 45.91Z" fill="white"/>
</g>
<path d="M31.5987 45.72C30.8987 45.72 30.3187 45.95 29.8687 46.42C29.4087 46.88 29.1887 47.46 29.1887 48.17C29.1887 48.86 29.3887 49.42 29.7987 49.85C30.2187 50.3 30.7687 50.53 31.4587 50.53C31.8787 50.53 32.2487 50.42 32.5687 50.22C32.8987 50.01 33.1587 49.72 33.3387 49.36H33.3787C33.3787 49.48 33.3887 49.57 33.3887 49.62C33.3887 50.42 33.2287 51.09 32.9187 51.62C32.5887 52.17 32.1487 52.45 31.5987 52.45C30.7587 52.45 30.2687 52.04 30.1187 51.23H29.3087C29.4987 52.5 30.2587 53.14 31.5887 53.14C32.3887 53.14 33.0287 52.76 33.5087 52.02C33.9487 51.3 34.1787 50.38 34.1787 49.24C34.1787 48.14 33.9687 47.28 33.5487 46.68C33.1087 46.04 32.4587 45.72 31.5987 45.72ZM31.6187 46.41C32.1087 46.41 32.5087 46.58 32.8087 46.92C33.0987 47.24 33.2487 47.65 33.2487 48.15C33.2487 48.64 33.0887 49.05 32.7887 49.37C32.4687 49.69 32.0787 49.85 31.6187 49.85C31.1187 49.85 30.7287 49.69 30.4387 49.38C30.1387 49.08 29.9987 48.67 29.9987 48.17C29.9987 47.65 30.1387 47.23 30.4387 46.9C30.7387 46.57 31.1287 46.41 31.6187 46.41ZM35.9948 48.13C35.8148 48.13 35.6748 48.19 35.5648 48.31C35.4448 48.43 35.3848 48.57 35.3848 48.74C35.3848 48.91 35.4448 49.06 35.5648 49.18C35.6748 49.29 35.8148 49.35 35.9948 49.35C36.1548 49.35 36.3048 49.29 36.4248 49.18C36.5448 49.06 36.6048 48.91 36.6048 48.74C36.6048 48.57 36.5448 48.43 36.4248 48.31C36.3048 48.19 36.1548 48.13 35.9948 48.13ZM35.9948 51.79C35.8148 51.79 35.6748 51.85 35.5648 51.97C35.4448 52.09 35.3848 52.23 35.3848 52.4C35.3848 52.57 35.4448 52.72 35.5648 52.84C35.6748 52.95 35.8148 53.01 35.9948 53.01C36.1548 53.01 36.3048 52.95 36.4248 52.84C36.5448 52.72 36.6048 52.57 36.6048 52.4C36.6048 52.23 36.5448 52.09 36.4248 51.97C36.3048 51.85 36.1548 51.79 35.9948 51.79ZM39.6115 45.86C39.3715 46.13 39.0915 46.37 38.7515 46.59C38.4115 46.79 38.0715 46.93 37.7515 47.02V47.84C38.4215 47.64 38.9815 47.32 39.4315 46.86V53H40.2515V45.86H39.6115ZM44.4252 45.72C43.6152 45.72 42.9752 46.09 42.5052 46.84C42.0552 47.55 41.8352 48.48 41.8352 49.62C41.8352 50.71 42.0352 51.56 42.4552 52.17C42.8952 52.81 43.5452 53.14 44.4152 53.14C45.1152 53.14 45.6852 52.9 46.1452 52.44C46.5952 51.98 46.8252 51.39 46.8252 50.69C46.8252 49.99 46.6152 49.43 46.2052 48.99C45.7852 48.55 45.2352 48.33 44.5552 48.33C44.1352 48.33 43.7652 48.43 43.4452 48.64C43.1052 48.84 42.8552 49.13 42.6752 49.5H42.6352C42.6252 49.37 42.6252 49.28 42.6252 49.24C42.6252 48.43 42.7752 47.76 43.0952 47.24C43.4152 46.68 43.8552 46.41 44.4152 46.41C45.2452 46.41 45.7352 46.81 45.8952 47.63H46.7052C46.5052 46.35 45.7452 45.72 44.4252 45.72ZM44.3952 49.01C44.8852 49.01 45.2752 49.16 45.5752 49.48C45.8652 49.78 46.0152 50.18 46.0152 50.69C46.0152 51.2 45.8652 51.62 45.5652 51.96C45.2652 52.28 44.8752 52.45 44.3952 52.45C43.8952 52.45 43.5052 52.28 43.2052 51.94C42.9052 51.62 42.7652 51.21 42.7652 50.71C42.7652 50.21 42.9152 49.81 43.2252 49.49C43.5352 49.17 43.9252 49.01 44.3952 49.01Z" fill="white"/>
</svg>
