<svg width="62" height="62" viewBox="0 0 62 62" fill="none" xmlns="http://www.w3.org/2000/svg">
<rect x="21.3571" y="18.8571" width="19.2857" height="10.2857" fill="#FAFAFA" fill-opacity="0.12" stroke="#B2B2B2" stroke-width="1.28571"/>
<g clip-path="url(#clip0_1404_34448)">
<path d="M25.1001 46.7305C24.9894 46.3246 24.6646 46.0056 24.2513 45.897C23.5022 45.6998 20.5 45.6998 20.5 45.6998C20.5 45.6998 17.4978 45.6998 16.7495 45.897C16.3362 46.0056 16.0114 46.3246 15.9007 46.7305C15.7 47.4655 15.7 48.9998 15.7 48.9998C15.7 48.9998 15.7 50.5342 15.9007 51.2692C16.0114 51.6751 16.3362 51.994 16.7495 52.1027C17.4978 52.2998 20.5 52.2998 20.5 52.2998C20.5 52.2998 23.5022 52.2998 24.2505 52.1027C24.6638 51.994 24.9886 51.6751 25.0993 51.2692C25.3 50.5342 25.3 48.9998 25.3 48.9998C25.3 48.9998 25.3 47.4655 25.0993 46.7305H25.1001Z" fill="#D9D9D9"/>
<path d="M19.5398 50.4139L22.0347 48.9999L19.5398 47.5858V50.4139Z" fill="#3A3A3A"/>
</g>
<path d="M30.9787 45.86C30.7387 46.13 30.4587 46.37 30.1187 46.59C29.7787 46.79 29.4387 46.93 29.1187 47.02V47.84C29.7887 47.64 30.3487 47.32 30.7987 46.86V53H31.6187V45.86H30.9787ZM35.7924 45.72C34.9824 45.72 34.3424 46.09 33.8724 46.84C33.4224 47.55 33.2024 48.48 33.2024 49.62C33.2024 50.71 33.4024 51.56 33.8224 52.17C34.2624 52.81 34.9124 53.14 35.7824 53.14C36.4824 53.14 37.0524 52.9 37.5124 52.44C37.9624 51.98 38.1924 51.39 38.1924 50.69C38.1924 49.99 37.9824 49.43 37.5724 48.99C37.1524 48.55 36.6024 48.33 35.9224 48.33C35.5024 48.33 35.1324 48.43 34.8124 48.64C34.4724 48.84 34.2224 49.13 34.0424 49.5H34.0024C33.9924 49.37 33.9924 49.28 33.9924 49.24C33.9924 48.43 34.1424 47.76 34.4624 47.24C34.7824 46.68 35.2224 46.41 35.7824 46.41C36.6124 46.41 37.1024 46.81 37.2624 47.63H38.0724C37.8724 46.35 37.1124 45.72 35.7924 45.72ZM35.7624 49.01C36.2524 49.01 36.6424 49.16 36.9424 49.48C37.2324 49.78 37.3824 50.18 37.3824 50.69C37.3824 51.2 37.2324 51.62 36.9324 51.96C36.6324 52.28 36.2424 52.45 35.7624 52.45C35.2624 52.45 34.8724 52.28 34.5724 51.94C34.2724 51.62 34.1324 51.21 34.1324 50.71C34.1324 50.21 34.2824 49.81 34.5924 49.49C34.9024 49.17 35.2924 49.01 35.7624 49.01ZM40.0085 48.13C39.8285 48.13 39.6885 48.19 39.5785 48.31C39.4585 48.43 39.3985 48.57 39.3985 48.74C39.3985 48.91 39.4585 49.06 39.5785 49.18C39.6885 49.29 39.8285 49.35 40.0085 49.35C40.1685 49.35 40.3185 49.29 40.4385 49.18C40.5585 49.06 40.6185 48.91 40.6185 48.74C40.6185 48.57 40.5585 48.43 40.4385 48.31C40.3185 48.19 40.1685 48.13 40.0085 48.13ZM40.0085 51.79C39.8285 51.79 39.6885 51.85 39.5785 51.97C39.4585 52.09 39.3985 52.23 39.3985 52.4C39.3985 52.57 39.4585 52.72 39.5785 52.84C39.6885 52.95 39.8285 53.01 40.0085 53.01C40.1685 53.01 40.3185 52.95 40.4385 52.84C40.5585 52.72 40.6185 52.57 40.6185 52.4C40.6185 52.23 40.5585 52.09 40.4385 51.97C40.3185 51.85 40.1685 51.79 40.0085 51.79ZM44.2452 45.72C43.5452 45.72 42.9652 45.95 42.5152 46.42C42.0552 46.88 41.8352 47.46 41.8352 48.17C41.8352 48.86 42.0352 49.42 42.4452 49.85C42.8652 50.3 43.4152 50.53 44.1052 50.53C44.5252 50.53 44.8952 50.42 45.2152 50.22C45.5452 50.01 45.8052 49.72 45.9852 49.36H46.0252C46.0252 49.48 46.0352 49.57 46.0352 49.62C46.0352 50.42 45.8752 51.09 45.5652 51.62C45.2352 52.17 44.7952 52.45 44.2452 52.45C43.4052 52.45 42.9152 52.04 42.7652 51.23H41.9552C42.1452 52.5 42.9052 53.14 44.2352 53.14C45.0352 53.14 45.6752 52.76 46.1552 52.02C46.5952 51.3 46.8252 50.38 46.8252 49.24C46.8252 48.14 46.6152 47.28 46.1952 46.68C45.7552 46.04 45.1052 45.72 44.2452 45.72ZM44.2652 46.41C44.7552 46.41 45.1552 46.58 45.4552 46.92C45.7452 47.24 45.8952 47.65 45.8952 48.15C45.8952 48.64 45.7352 49.05 45.4352 49.37C45.1152 49.69 44.7252 49.85 44.2652 49.85C43.7652 49.85 43.3752 49.69 43.0852 49.38C42.7852 49.08 42.6452 48.67 42.6452 48.17C42.6452 47.65 42.7852 47.23 43.0852 46.9C43.3852 46.57 43.7752 46.41 44.2652 46.41Z" fill="#D4D4D4"/>
<defs>
<clipPath id="clip0_1404_34448">
<rect width="9.6" height="6.6" fill="white" transform="translate(15.7 45.6998)"/>
</clipPath>
</defs>
</svg>
