<?xml version="1.0" encoding="utf-8"?>
<!-- Generator: Adobe Illustrator 21.0.0, SVG Export Plug-In . SVG Version: 6.00 Build 0)  -->
<svg version="1.1" id="Layer_1" xmlns="http://www.w3.org/2000/svg" xmlns:xlink="http://www.w3.org/1999/xlink" x="0px" y="0px"
	 viewBox="0 0 44  36" style="enable-background:new 0 0 44 36;" xml:space="preserve">
<style type="text/css">
	.st0{opacity:0.65;fill:#FFFFFF;enable-background:new;}
</style>
<g id="icon_x2F_set-in" transform="translate(20.000000, 18.000000) rotate(180.000000) translate(-20.000000, -18.000000) translate(16.000000, 10.000000)">
	<path class="st0" d="M-3.1-8h4c0.6,0,1,0.4,1,1v30c0,0.6-0.4,1-1,1h-4c-0.6,0-1-0.4-1-1V-7C-4.1-7.6-3.6-8-3.1-8z"/>
	<path class="st0" d="M-0.1,0.1c0-1.1,0.7-1.5,1.6-0.8l10,7.5c0.9,0.7,0.9,1.7,0,2.4l-10,7.5c-0.9,0.7-1.6,0.3-1.6-0.8V0.1z"/>
</g>
</svg>
