<svg id="S_Pause_Md_N_D_2x" data-name="S_Pause_Md_N_D@2x" xmlns="http://www.w3.org/2000/svg" width="36" height="36" viewBox="0 0 36 36">
  <defs>
    <style>
      .fill {
        fill: #fff;
        fill-rule: evenodd;
        opacity: 0.65;
      }

      
    </style>
  </defs>
  <title>S_Pause_Md_N_D@2x</title>
  <path id="Fill" class="fill" d="M11,8h4a1,1,0,0,1,1,1V25a1,1,0,0,1-1,1H11a1,1,0,0,1-1-1V9A1,1,0,0,1,11,8Z"/>
  <path id="Fill2" class="fill" d="M21,8h4a1,1,0,0,1,1,1V25a1,1,0,0,1-1,1H21a1,1,0,0,1-1-1V9A1,1,0,0,1,21,8Z"/>
  </svg>