<svg xmlns="http://www.w3.org/2000/svg" data-name="S_PrevFrame_Lg_N@2x" height="36" id="S_PrevFrame_Lg_N_2x" viewBox="0 0 44 36" width="44">
	<defs>
		<style>
			.fill {
				opacity: 0.65;
				fill: #FFFFFF;
			}
		</style>
	</defs>
	<path class="fill" transform="translate(13.000000, 11.000000)" d="M24,21h-6c-0.6,0-1-0.4-1-1V-6c0-0.6,0.4-1,1-1h6c0.6,0,1,0.4,1,1v26C25,20.6,24.6,21,24,21z"/>
	<path class="fill" transform="translate(13.000000, 11.000000)" d="M11,19.9V-5.9c0-0.4-0.2-0.7-0.6-0.9C10.1-7,9.7-6.9,9.4-6.7L-6.7,6.2C-7,6.4-7.1,6.7-7.1,7 c0,0.3,0.1,0.6,0.4,0.8L9.4,20.7c0.3,0.2,0.7,0.3,1.1,0.1C10.8,20.7,11,20.3,11,19.9L11,19.9z"/>
</svg>
